<svg width="342" height="100" viewBox="0 0 342 100" fill="none" xmlns="http://www.w3.org/2000/svg">
<path fill-rule="evenodd" clip-rule="evenodd" d="M42.0453 20.307C41.4813 20.5272 41.228 20.7303 41.2228 20.9666C41.2218 21.0159 41.4165 20.9726 41.6555 20.8703C42.3636 20.567 42.3868 20.5918 42.2928 21.5509C42.2462 22.0276 42.1794 22.5186 42.1445 22.6423C42.0986 22.8048 42.1528 22.867 42.3402 22.867C42.4827 22.867 42.5992 22.7933 42.5992 22.7031C42.5992 22.613 42.6576 22.0626 42.7288 21.4799C42.8981 20.0956 42.8405 19.9966 42.0453 20.307ZM39.7782 21.6912C39.5844 21.9916 39.4917 22.2702 39.5414 22.4032C39.6145 22.5981 39.6442 22.5913 39.8158 22.3402C40.0046 22.0638 40.0157 22.0734 40.3954 22.8435C40.6906 23.4422 40.8247 23.6017 40.9601 23.5156C41.1064 23.4228 41.0533 23.2088 40.6584 22.3004C40.3947 21.6939 40.1605 21.1978 40.1379 21.1978C40.1154 21.1978 39.9535 21.4198 39.7782 21.6912ZM37.4024 22.6309C37.0944 22.8792 37.065 22.9694 37.1227 23.493C37.1734 23.9549 37.2814 24.1666 37.636 24.4997C38.1577 24.9897 38.4293 25.0234 38.8862 24.6552C39.63 24.0557 38.9858 22.3534 38.015 22.3534C37.8674 22.3534 37.5918 22.4782 37.4024 22.6309ZM38.5987 23.4209C38.9467 23.9994 38.8748 24.3436 38.4059 24.3436C38.1028 24.3436 37.9814 24.2484 37.7501 23.83C37.4105 23.2155 37.4086 23.197 37.6588 22.9406C37.9133 22.6799 38.2594 22.8568 38.5987 23.4209ZM35.0617 24.1516C34.6716 24.5514 34.6443 24.8284 34.9885 24.8967C35.1161 24.9221 35.2023 24.8299 35.2286 24.6399C35.2548 24.4501 35.3678 24.3292 35.543 24.3036C35.9652 24.2421 36.0732 24.611 35.8928 25.4991C35.6723 26.5856 35.7703 26.6796 36.558 26.1361C37.1932 25.6976 37.3781 25.4349 37.0516 25.4349C36.9636 25.4349 36.7626 25.5275 36.605 25.6406C36.2366 25.905 36.1854 25.8398 36.3367 25.2988C36.5208 24.6413 36.4874 24.3076 36.2093 24.0226C35.8577 23.6623 35.4999 23.7026 35.0617 24.1516ZM31.9734 26.6095C31.5413 27.0354 31.3339 27.3336 31.3816 27.4605C31.4426 27.6235 31.506 27.6069 31.7612 27.3612L32.0675 27.0662L32.7947 27.8714C33.3961 28.5373 33.5472 28.6451 33.669 28.4948C33.7875 28.3485 33.6835 28.1604 33.1355 27.5299C32.5532 26.86 32.4816 26.7239 32.6406 26.5887C32.8314 26.4264 32.9006 25.9464 32.7324 25.9514C32.6807 25.9528 32.3392 26.249 31.9734 26.6095ZM34.7463 26.9245C34.6576 27.1613 34.9606 27.4079 35.1285 27.2359C35.2653 27.0956 35.1398 26.7189 34.9564 26.7189C34.8831 26.7189 34.7886 26.8114 34.7463 26.9245ZM30.0604 28.5066C29.6747 28.9018 29.6152 29.1526 29.8159 29.537C30.0094 29.9074 30.2983 29.9457 30.824 29.6709C31.4358 29.3511 31.6988 29.3467 31.6988 29.6564C31.6988 29.9354 31.4914 30.1379 31.1364 30.2054C30.9994 30.2315 30.8684 30.3532 30.8453 30.476C30.7731 30.8599 31.312 30.7361 31.774 30.2627C32.2512 29.7736 32.3102 29.429 31.9708 29.1142C31.6652 28.8307 31.3772 28.8463 30.8587 29.1748C30.5654 29.3605 30.3866 29.4059 30.2997 29.3168C30.1032 29.1155 30.2313 28.7178 30.5099 28.6636C30.647 28.6369 30.8006 28.5496 30.8512 28.4695C31.156 27.9871 30.5391 28.016 30.0604 28.5066ZM28.259 30.5252C28.0147 30.8531 27.5624 31.289 27.5624 31.3359C27.5624 31.4365 29.0719 32.5874 29.3448 32.6946C29.6134 32.8002 30.7269 31.4694 30.5442 31.2438C30.4427 31.1185 30.3257 31.2013 30.0381 31.6022C29.683 32.097 29.6522 32.1125 29.4316 31.908C29.206 31.6987 29.2059 31.6832 29.4301 31.3564C29.5735 31.1478 29.6283 30.9272 29.5749 30.775C29.4995 30.5603 29.4536 30.5882 29.2059 30.9988C28.9659 31.3967 28.8862 31.448 28.682 31.3359C28.3659 31.1625 28.3781 31.0237 28.7538 30.5189C29.0399 30.1346 29.0566 29.9289 28.8019 29.9289C28.7477 29.9289 28.5034 30.1972 28.259 30.5252ZM0 50.5754V57.1622L4.1033 57.1237C8.60378 57.0813 8.59426 57.083 8.95835 56.2964C9.11622 55.9557 9.14604 55.0301 9.14441 50.5174C9.14253 44.7895 9.13953 44.7599 8.51758 44.2869C8.22665 44.0656 7.88373 44.0447 4.10105 44.0177L0 43.9885V50.5754ZM13.6255 44.024L11.7774 44.0595V49.9023C11.7774 56.1365 11.7894 56.2704 12.3995 56.8283C12.6664 57.0722 12.8862 57.087 16.802 57.1237L20.9237 57.1622V50.6075V44.0527H19.0443H17.165V48.996V53.9393H16.4132H15.6615V49.0036C15.6615 46.2888 15.6191 44.05 15.5675 44.0281C15.5159 44.0063 14.642 44.0045 13.6255 44.024ZM23.8983 44.0292L23.5526 44.07L23.585 50.5775L23.6175 57.0851L27.5326 57.119C32.9847 57.1662 32.7638 57.304 32.7638 53.858C32.7638 51.3251 32.6826 51.0822 31.7187 50.7333C31.0653 50.4968 31.0571 50.2996 31.6925 50.1044C32.0013 50.0097 32.2958 49.7968 32.4756 49.5385C32.7366 49.1635 32.7679 48.9563 32.8074 47.3462C32.8554 45.3919 32.6846 44.5851 32.1577 44.2759C31.9658 44.1632 30.7721 44.0981 28.0653 44.0527C25.9636 44.0173 24.0883 44.0068 23.8983 44.0292ZM38.9344 44.0218L35.207 44.0565V50.6029V57.1493H37.0863H38.9657V55.0949V53.0405H39.3993C39.8891 53.0405 39.7785 52.781 40.4638 55.5364C40.6736 56.3796 40.8451 57.0874 40.8451 57.1093C40.8451 57.1313 41.6908 57.1493 42.7245 57.1493H44.6038V56.3424C44.6038 55.6869 44.4906 55.233 44.0002 53.923L43.3964 52.3106L43.8436 51.9229L44.2906 51.5352L44.3279 48.2366L44.3654 44.9382L43.9333 44.4954C43.6957 44.2519 43.3875 44.0527 43.2484 44.0527C43.1094 44.0527 42.9204 44.0379 42.8287 44.0199C42.7369 44.0019 40.9845 44.0028 38.9344 44.0218ZM58.1353 44.5113C58.1353 44.7988 58.2739 45.8966 58.4433 46.9509C58.6127 48.005 58.8148 49.272 58.8925 49.7664C58.9702 50.2607 59.0805 50.9252 59.1377 51.243C59.1948 51.5607 59.3048 52.2252 59.3821 52.7195C59.4593 53.2139 59.6494 54.3983 59.8042 55.3517L60.086 57.0851H62.9552H65.8244L66.8006 51.0504C67.3376 47.7313 67.7783 44.802 67.7799 44.541L67.7828 44.0661L66.0222 44.0274C65.0538 44.0059 64.1912 44.0173 64.1051 44.0527C64.0154 44.0895 63.936 44.3909 63.9189 44.7588C63.9026 45.1119 63.8367 45.9786 63.7727 46.6848C63.7086 47.391 63.594 48.8066 63.5182 49.8306C63.3228 52.4702 63.1857 53.814 63.1035 53.8982C63.0644 53.9383 62.9568 53.9412 62.8643 53.9049C62.7394 53.8558 62.6384 53.0652 62.4727 50.8395C62.3498 49.19 62.198 47.3493 62.1354 46.749C62.0728 46.1488 62.0201 45.3687 62.0185 45.0156C62.0169 44.6625 61.969 44.2984 61.9121 44.2066C61.8361 44.0837 61.3214 44.0326 59.972 44.014L58.1353 43.9885V44.5113ZM81.7841 44.024L79.9361 44.0595V50.6078V57.1559L81.8234 57.1205L83.7108 57.0851L83.7341 54.5813L83.7575 52.0775H84.1294C84.4625 52.0775 84.5121 52.1311 84.6048 52.5911C84.6618 52.8736 84.8915 54.0003 85.1151 55.0949L85.522 57.0851L87.4274 57.1205L89.333 57.1559V56.3466C89.333 55.6869 89.172 55.0435 88.4614 52.8649L87.5899 50.1924L88.0973 48.567C88.3764 47.6731 88.6833 46.6816 88.7795 46.3638C88.8756 46.046 88.955 45.3944 88.9557 44.9159L88.9571 44.0456L87.1717 44.0813L85.3863 44.1169L84.9447 46.428L84.5031 48.7392H84.1304H83.7575L83.7392 46.388C83.7292 45.0947 83.701 44.0258 83.6765 44.0126C83.6521 43.9992 82.8005 44.0045 81.7841 44.024ZM91.6497 44.0324C91.6159 44.067 91.5882 47.0325 91.5882 50.6224V57.1493H93.4676H95.347V50.601V44.0527L93.9374 44.0416C93.1623 44.0356 92.3442 44.0168 92.1196 44C91.8951 43.9831 91.6836 43.9977 91.6497 44.0324ZM105 44.0527L103.439 44.1169L103.219 45.3366C103.098 46.0075 102.9 47.1216 102.779 47.8124C102.407 49.9451 102.185 49.4689 101.465 44.9835L101.316 44.0527H99.3965H97.4769V44.8456C97.4769 45.5534 97.6388 46.0653 98.9804 49.6001L100.484 53.5616V55.3554V57.1493H102.363H104.243V55.367V53.5848L105.745 49.6212C107.113 46.0141 107.248 45.5825 107.249 44.823C107.25 43.854 107.526 43.9488 105 44.0527ZM47.4428 44.3164C46.8745 44.7745 46.8422 45.1543 46.8833 50.8875L46.9217 56.2457L47.3312 56.6655L47.7405 57.0851L51.2437 57.1246C54.3271 57.1594 54.8002 57.1381 55.1936 56.9468C56.0263 56.5418 56.017 56.6201 55.9779 50.3965L55.9427 44.8017L55.5335 44.4272L55.1243 44.0527H51.4471C47.9276 44.0527 47.7559 44.064 47.4428 44.3164ZM70.0087 44.4273L69.5995 44.802V47.1785C69.5995 50.0257 69.5215 49.8533 71.4255 51.2125C73.9445 53.0106 73.8594 52.9332 73.8594 53.428V53.8751L71.6982 53.9103L69.5369 53.9453V55.5546V57.1638L73.139 57.1244C77.0692 57.0815 77.1037 57.075 77.4974 56.3193C77.6677 55.9924 77.6939 55.5628 77.6593 53.6594C77.6219 51.5942 77.5945 51.3566 77.3561 51.0272C77.0633 50.623 76.3123 50.0205 74.5485 48.7748C73.6117 48.1132 73.3583 47.8694 73.3583 47.6305V47.3268L75.2392 47.2915L77.12 47.2562L77.4004 46.4329C77.5716 45.9302 77.6808 45.3062 77.6808 44.8311V44.0527H74.0494H70.4179L70.0087 44.4273ZM5.38754 50.6071V53.9515L4.60447 53.9134L3.8214 53.8751L3.78782 50.7318C3.76927 49.0029 3.78168 47.5152 3.81513 47.4255C3.8551 47.3188 4.13688 47.2626 4.63191 47.2626H5.38754V50.6071ZM28.9424 48.033V48.8034H28.1906H27.4389V48.033V47.2626H28.1906H28.9424V48.033ZM40.5677 48.5145L40.5319 49.7664H39.7801H39.0284L38.9925 48.5145L38.9567 47.2626H39.7801H40.6035L40.5677 48.5145ZM52.2466 50.6071V53.9515L51.4636 53.9134L50.6805 53.8751L50.6469 50.7318C50.6284 49.0029 50.6408 47.5152 50.6742 47.4255C50.7142 47.3188 50.996 47.2626 51.491 47.2626H52.2466V50.6071ZM28.9424 52.9763V53.9393H28.1906H27.4389V52.9763V52.0133H28.1906H28.9424V52.9763ZM36.4912 61.7255L35.9587 62.0545V63.5472V65.0398L35.507 64.337C35.2586 63.9504 34.7473 63.1861 34.3708 62.6387C33.7437 61.7267 33.6501 61.6432 33.2563 61.6432H32.8264V64.2754V66.9075H33.3276H33.8288V65.2919C33.8288 64.4008 33.8787 63.6954 33.9403 63.719C34.0017 63.7425 34.4343 64.3396 34.9016 65.0457C35.3691 65.7519 35.8404 66.4579 35.9491 66.6146C36.0918 66.8205 36.277 66.9006 36.6165 66.9035L37.0863 66.9075V64.147C37.0863 62.6286 37.0722 61.3887 37.055 61.3914C37.0378 61.3941 36.784 61.5445 36.4912 61.7255ZM53.7201 61.6809L53.2515 61.9642L53.2502 64.4358L53.249 66.9075H53.7501H54.2513V64.147C54.2513 62.6286 54.2371 61.389 54.22 61.392C54.2028 61.3953 53.9778 61.5252 53.7201 61.6809ZM13.7028 61.8821C12.9321 62.378 12.7106 63.0682 13.0843 63.8089C13.2764 64.1893 13.7907 64.4604 14.933 64.7828C15.6583 64.9876 15.8765 65.2345 15.7145 65.6672C15.6186 65.9231 14.9336 66.1307 14.4791 66.0417C14.294 66.0055 14.056 65.8403 13.9501 65.6745C13.764 65.3836 13.744 65.3802 13.3626 65.5788C12.8322 65.8552 12.844 65.8299 13.0772 66.1946C13.3754 66.6611 13.9661 66.9279 14.7158 66.9349C16.0198 66.9469 16.6556 66.5282 16.7481 65.5967C16.841 64.6622 16.5084 64.2883 15.2286 63.8882C14.0498 63.5199 13.7952 63.2768 14.1083 62.8187C14.3815 62.4191 15.3168 62.4251 15.5923 62.8282C15.7802 63.1032 15.8013 63.106 16.1318 62.9005C16.916 62.4129 16.2612 61.7399 14.937 61.6725C14.2665 61.6382 14.0155 61.6809 13.7028 61.8821ZM23.2506 63.3288C24.175 65.0031 24.1813 65.0207 24.1813 65.961V66.9075H24.6825H25.1836V66.0363C25.1836 65.1888 25.2092 65.1189 26.1233 63.4661C26.6401 62.5317 27.063 61.7392 27.063 61.7052C27.063 61.6711 26.8103 61.6432 26.5013 61.6432C25.9573 61.6432 25.9301 61.6623 25.6364 62.2531C25.4697 62.5885 25.1934 63.1139 25.0225 63.4206L24.7118 63.9782L24.1111 62.8107L23.5105 61.6432H22.9152H22.3201L23.2506 63.3288ZM43.1003 64.275V66.9359L44.4472 66.8866C45.9802 66.8303 46.3955 66.6584 46.9386 65.8553C47.1773 65.5025 47.2804 65.1546 47.3286 64.5409C47.3849 63.8203 47.3492 63.6128 47.0667 63.021C46.5813 62.0044 46.0373 61.7292 44.3846 61.6644L43.1003 61.614V64.275ZM61.4363 61.891C60.6378 62.2626 60.2382 63.0529 60.2306 64.2757C60.2253 65.1128 60.2696 65.3049 60.5894 65.8327C61.0525 66.5968 61.6782 66.9433 62.5799 66.935C63.314 66.9282 63.6579 66.7896 64.1807 66.29C64.6203 65.8698 64.6152 65.6778 64.1579 65.4354C63.8042 65.248 63.7765 65.255 63.4158 65.6247C63.1645 65.8821 62.9158 66.0087 62.6614 66.0087C61.6837 66.0087 61.2045 65.3208 61.2944 64.0464C61.3418 63.375 61.4012 63.2263 61.7488 62.908C62.0198 62.66 62.2839 62.542 62.5683 62.542C63.0211 62.542 63.6482 62.9575 63.6482 63.2575C63.6482 63.4951 63.6764 63.4908 64.2031 63.1723C64.6905 62.8776 64.6788 62.7223 64.1295 62.1975C63.5012 61.5972 62.3494 61.4661 61.4363 61.891ZM72.0557 61.9321C71.8632 62.4566 70.4139 66.8025 70.4139 66.8555C70.4139 66.8841 70.6604 66.9075 70.9614 66.9075C71.5041 66.9075 71.5103 66.9024 71.6682 66.3248L71.8273 65.7422L72.8324 65.7791L73.8375 65.8161L73.9771 66.3297C74.109 66.8149 74.1459 66.8455 74.6459 66.8827C75.0511 66.913 75.175 66.877 75.175 66.7285C75.175 66.622 74.871 65.6509 74.4997 64.5705C74.1282 63.4901 73.7573 62.3896 73.6755 62.1247C73.5277 61.6459 73.5229 61.6432 72.8443 61.6432C72.2514 61.6432 72.1478 61.6812 72.0557 61.9321ZM80.8131 62.0926V62.542H81.5649H82.3166V64.7247V66.9075H82.8804H83.4443V64.7321V62.5567L83.9706 62.5172C84.4133 62.4841 84.5345 62.4115 84.7339 62.0605L84.9708 61.6432H82.892H80.8131V62.0926ZM90.7947 61.7288C90.7488 61.7758 90.7112 62.9603 90.7112 64.361V66.9075H92.4653H94.2193V66.4581V66.0087H93.0291H91.8388V65.3667V64.7247H92.6927C93.5451 64.7247 93.5468 64.724 93.7556 64.2754L93.9648 63.826H92.9018H91.8388V63.184V62.542H93.0291H94.2193V62.0926V61.6432H92.5488C91.6299 61.6432 90.8406 61.6817 90.7947 61.7288ZM45.5021 62.7251C46.0532 62.9611 46.2864 63.4219 46.2864 64.2754C46.2864 65.465 45.7802 66.0087 44.6727 66.0087H44.1027V64.2754V62.542H44.5886C44.8558 62.542 45.2669 62.6244 45.5021 62.7251ZM72.8858 64.8282C72.5446 64.8498 72.2442 64.8456 72.218 64.8187C72.1918 64.7919 72.3204 64.3128 72.5037 63.7541L72.8371 62.738L73.1716 63.7634L73.506 64.7889L72.8858 64.8282Z" fill="white"/>
<path fill-rule="evenodd" clip-rule="evenodd" d="M49.4853 3.72507V7.45014L48.771 7.53052C43.9417 8.07368 40.0555 9.05647 36.1724 10.7163C33.1296 12.0171 29.4841 14.1539 27.3646 15.8793C27.1889 16.0223 26.8568 16.2817 26.6265 16.4557C23.687 18.6771 20.7882 21.8389 17.7487 26.1393C16.9413 27.2817 14.0816 32.5964 14.0816 32.9546C14.0816 32.9964 13.9467 33.3313 13.7818 33.6988C13.3171 34.7346 12.1075 38.3717 12.0967 38.7659C12.0952 38.8182 13.4496 38.8598 15.1065 38.8585L18.1189 38.8563L18.4213 37.8775C18.7563 36.793 18.9878 36.2045 19.6185 34.8351C19.8528 34.3266 20.0444 33.8874 20.0444 33.8588C20.0444 33.683 21.7162 30.7314 22.4451 29.6203C24.3656 26.6932 27.32 23.4154 29.9554 21.2879C35.383 16.9066 41.876 14.1933 48.6468 13.477L49.4853 13.3882V15.555V17.7215H52.4045H55.3238V15.5696V13.4177H55.6065C56.1793 13.4177 58.0367 13.6932 59.5194 13.998C69.6875 16.0884 78.3067 22.4302 83.6767 31.7722C84.6966 33.5466 85.5248 35.4211 86.6552 38.5127L86.7825 38.8608H89.7622H92.742L92.6595 38.5127C92.4718 37.7199 91.714 35.4221 91.2505 34.2406C87.4332 24.5074 80.2109 16.5043 71.0606 11.8682C66.3425 9.47774 61.6374 8.11761 56.0381 7.52571L55.3238 7.45014V3.72507V0H52.4045H49.4853V3.72507ZM49.9201 25.6516C46.9202 26.006 44.5567 26.6959 41.9698 27.9724C37.9559 29.9531 34.7826 32.8141 32.2113 36.7708C31.6669 37.6084 31.1002 38.6396 31.1002 38.7925C31.1002 38.8301 32.5755 38.8608 34.3787 38.8608H37.6572L38.5474 37.7923C41.1425 34.6776 44.9046 32.4533 48.9511 31.6411C50.8942 31.2511 53.8804 31.2471 55.7586 31.6322C57.3983 31.9684 57.9338 32.1256 59.2368 32.6536C61.8711 33.7212 64.4351 35.6002 66.307 37.8353L67.166 38.8608H70.4374C72.2367 38.8608 73.7088 38.812 73.7088 38.7522C73.7088 38.6926 73.3563 38.0455 72.9254 37.3144C69.1501 30.9092 62.6612 26.6276 55.327 25.7024C54.3622 25.5807 50.8034 25.5473 49.9201 25.6516ZM16.2712 71.3609C17.3988 73.3751 18.8383 75.4354 20.5384 77.4685C27.4986 85.7918 37.1154 91.0413 47.5909 92.2356L49.4853 92.4515V96.2258V100H52.4045H55.3238V96.2134V92.4269L56.2865 92.3434C64.0024 91.6747 72.1456 88.3686 78.243 83.4291C82.2744 80.1633 86.1339 75.6385 88.5368 71.3609L88.8745 70.7596L85.4842 70.7597H82.0939L81.2252 71.9306C76.1934 78.7121 68.9917 83.6058 61.2244 85.5217C60.8145 85.6228 60.2834 85.7561 60.0443 85.818C59.4034 85.9836 57.3894 86.312 56.2865 86.4306L55.3238 86.5342V84.2166V81.8989H52.4045H49.4853V84.1773V86.4558L48.9573 86.4518C47.8766 86.4436 45.0644 85.9443 43.1499 85.4208C40.1114 84.5899 36.7602 83.1556 34.0551 81.5282C32.6432 80.6787 30.5006 79.1114 29.122 77.9195C27.167 76.2295 24.3441 73.1201 23.1675 71.3609L22.7654 70.7596H19.35H15.9346L16.2712 71.3609ZM40.1685 71.0316C42.4905 72.4796 45.5776 73.6024 48.8642 74.1944C50.1017 74.4175 54.6967 74.4187 55.9449 74.1964C57.2068 73.9718 59.0381 73.5042 60.236 73.1007C61.2207 72.7691 63.8138 71.552 64.6405 71.0333L65.0753 70.7605H52.4045H39.7338L40.1685 71.0316Z" fill="#9545E4"/>
<path d="M158.041 55.3298H162.803C162.683 55.8351 162.494 56.3488 162.237 56.871C161.996 57.3932 161.593 57.9743 161.027 58.6144C160.478 59.2544 159.817 59.8187 159.045 60.3072C158.29 60.7788 157.286 61.1746 156.033 61.4947C154.797 61.8316 153.425 62 151.914 62C148.585 62 145.934 61.1746 143.96 59.5239C141.987 57.8564 141 55.4982 141 52.4495C141 49.6702 141.952 47.4047 143.857 45.6529C145.779 43.8843 148.551 43 152.172 43C154.883 43 157.148 43.5474 158.968 44.6423C160.787 45.7203 161.996 47.0257 162.597 48.5585L157.629 49.1649C156.342 47.2447 154.523 46.2846 152.172 46.2846C151.022 46.2846 150.01 46.4783 149.134 46.8657C148.259 47.2531 147.581 47.7668 147.101 48.4069C146.637 49.047 146.286 49.7123 146.045 50.4029C145.822 51.0935 145.711 51.7926 145.711 52.5C145.711 54.2518 146.32 55.7256 147.538 56.9215C148.774 58.1175 150.361 58.7154 152.301 58.7154C155.063 58.7154 156.977 57.5869 158.041 55.3298Z" fill="white"/>
<path d="M185.583 61.3936H181.027V53.738H170.061V61.3936H165.505V43.5559H170.061V50.4282H181.027V43.5559H185.583V61.3936Z" fill="white"/>
<path d="M208.197 61.3936H190.744V43.5559H207.682V46.7646H195.3V50.7819H207.27V53.9654H195.3V58.2101H208.197V61.3936Z" fill="white"/>
<path d="M210.242 56.9215L214.387 55.8856C215.279 57.7385 217.33 58.6649 220.539 58.6649C220.899 58.6649 221.268 58.6481 221.646 58.6144C222.023 58.5638 222.504 58.4712 223.087 58.3364C223.671 58.2017 224.143 57.9659 224.503 57.629C224.881 57.2753 225.069 56.8373 225.069 56.3152C225.069 56.0793 225.027 55.8688 224.941 55.6835C224.872 55.4982 224.726 55.3382 224.503 55.2035C224.297 55.0687 224.1 54.9592 223.911 54.875C223.74 54.7908 223.465 54.7066 223.087 54.6223C222.71 54.5381 222.401 54.4792 222.161 54.4455C221.938 54.3949 221.577 54.336 221.08 54.2686C219.638 54.0496 218.634 53.8981 218.068 53.8138C217.501 53.7128 216.875 53.578 216.189 53.4096C215.502 53.2411 214.927 53.0474 214.464 52.8285C212.559 51.9526 211.607 50.5377 211.607 48.5838C211.607 47.3205 212.01 46.2593 212.817 45.4003C213.623 44.5244 214.644 43.9096 215.88 43.5559C217.115 43.1853 218.523 43 220.101 43C224.821 43 227.995 44.4233 229.626 47.2699L225.327 48.3311C224.555 46.8994 222.77 46.1835 219.973 46.1835C217.33 46.1835 216.008 46.8741 216.008 48.2553C216.008 48.9796 216.489 49.4934 217.45 49.7965C217.862 49.9145 219.81 50.2766 223.293 50.883C223.928 51.0009 224.452 51.102 224.864 51.1862C225.275 51.2704 225.799 51.4388 226.434 51.6915C227.086 51.9441 227.601 52.2389 227.978 52.5758C228.356 52.9127 228.69 53.3759 228.982 53.9654C229.274 54.5381 229.42 55.2035 229.42 55.9614C229.42 59.9535 226.339 61.9495 220.179 61.9495C217.604 61.9495 215.528 61.5368 213.949 60.7114C212.388 59.8861 211.152 58.6228 210.242 56.9215Z" fill="white"/>
<path d="M248.443 46.8152H241.724V61.3936H237.142V46.8152H230.398V43.5559H248.443V46.8152Z" fill="white"/>
<path d="M280.993 61.3936H275.896L274.352 58.0332H265.033L263.489 61.3936H258.521L267.299 43.5559H272.215L280.993 61.3936ZM272.884 54.875L269.718 47.9016L266.501 54.875H272.884Z" fill="white"/>
<path d="M300.234 43.5559L292.074 61.3936H287.647L279.435 43.5559H284.455L289.886 56.7194L295.343 43.5559H300.234Z" fill="white"/>
<path d="M319.232 46.8152H312.513V61.3936H307.931V46.8152H301.187V43.5559H319.232V46.8152Z" fill="white"/>
<path d="M319.708 52.4747C319.708 50.8072 320.017 49.3502 320.635 48.1037C321.252 46.8404 322.085 45.8551 323.131 45.1476C324.195 44.4233 325.362 43.8843 326.632 43.5306C327.919 43.1769 329.292 43 330.751 43C332.244 43 333.625 43.16 334.895 43.4801C336.182 43.8001 337.367 44.3054 338.448 44.996C339.546 45.6866 340.413 46.6551 341.048 47.9016C341.683 49.1481 342 50.6135 342 52.2979C342 55.2961 341.03 57.6627 339.091 59.3976C337.169 61.1157 334.441 61.9747 330.905 61.9747C327.37 61.9747 324.616 61.1157 322.642 59.3976C320.686 57.6795 319.708 55.3719 319.708 52.4747ZM324.393 52.6011C324.393 53.359 324.513 54.0918 324.753 54.7992C324.993 55.4898 325.354 56.1467 325.834 56.7699C326.332 57.3763 327.01 57.8648 327.868 58.2354C328.743 58.5891 329.738 58.766 330.854 58.766C331.987 58.766 332.973 58.5891 333.814 58.2354C334.655 57.8648 335.29 57.4353 335.719 56.9468C336.165 56.4415 336.517 55.8688 336.774 55.2287C337.049 54.5887 337.212 54.0665 337.264 53.6622C337.332 53.2411 337.367 52.8537 337.367 52.5C337.367 50.7819 336.792 49.3081 335.642 48.0785C334.509 46.832 332.913 46.2088 330.854 46.2088C328.76 46.2088 327.156 46.8488 326.04 48.129C324.942 49.3923 324.393 50.883 324.393 52.6011Z" fill="white"/>
</svg>
