<svg width="26" height="26" viewBox="0 0 26 26" fill="none" xmlns="http://www.w3.org/2000/svg">
<path d="M13.005 7.16019C9.77529 7.16019 7.17021 9.76527 7.17021 12.995C7.17021 16.2246 9.77529 18.8297 13.005 18.8297C16.2347 18.8297 18.8397 16.2246 18.8397 12.995C18.8397 9.76527 16.2347 7.16019 13.005 7.16019ZM13.005 16.7883C10.9179 16.7883 9.21162 15.0871 9.21162 12.995C9.21162 10.9028 10.9128 9.2016 13.005 9.2016C15.0972 9.2016 16.7983 10.9028 16.7983 12.995C16.7983 15.0871 15.0921 16.7883 13.005 16.7883V16.7883ZM20.4394 6.92152C20.4394 7.67816 19.83 8.28246 19.0784 8.28246C18.3218 8.28246 17.7175 7.67308 17.7175 6.92152C17.7175 6.16996 18.3269 5.56058 19.0784 5.56058C19.83 5.56058 20.4394 6.16996 20.4394 6.92152ZM24.3038 8.30277C24.2175 6.47972 23.8011 4.86488 22.4655 3.53441C21.1351 2.20394 19.5202 1.78754 17.6972 1.69613C15.8183 1.58949 10.1866 1.58949 8.30771 1.69613C6.48975 1.78246 4.8749 2.19886 3.53936 3.52933C2.20381 4.8598 1.79248 6.47465 1.70107 8.29769C1.59443 10.1766 1.59443 15.8082 1.70107 17.6871C1.7874 19.5102 2.20381 21.125 3.53936 22.4555C4.8749 23.786 6.48467 24.2024 8.30771 24.2938C10.1866 24.4004 15.8183 24.4004 17.6972 24.2938C19.5202 24.2075 21.1351 23.7911 22.4655 22.4555C23.796 21.125 24.2124 19.5102 24.3038 17.6871C24.4104 15.8082 24.4104 10.1817 24.3038 8.30277V8.30277ZM21.8765 19.7032C21.4804 20.6985 20.7136 21.4653 19.7132 21.8664C18.2151 22.4606 14.6604 22.3235 13.005 22.3235C11.3495 22.3235 7.78975 22.4555 6.29678 21.8664C5.30146 21.4703 4.53467 20.7036 4.1335 19.7032C3.53936 18.2051 3.67646 14.6504 3.67646 12.995C3.67646 11.3395 3.54443 7.77972 4.1335 6.28676C4.52959 5.29144 5.29639 4.52465 6.29678 4.12347C7.79482 3.52933 11.3495 3.66644 13.005 3.66644C14.6604 3.66644 18.2202 3.53441 19.7132 4.12347C20.7085 4.51957 21.4753 5.28636 21.8765 6.28676C22.4706 7.7848 22.3335 11.3395 22.3335 12.995C22.3335 14.6504 22.4706 18.2102 21.8765 19.7032Z" fill="white"/>
</svg>
