<svg width="26" height="26" viewBox="0 0 26 26" fill="none" xmlns="http://www.w3.org/2000/svg">
<path d="M24.8106 7.04539C24.5271 5.97786 23.6917 5.1371 22.6311 4.85178C20.7086 4.33331 12.9998 4.33331 12.9998 4.33331C12.9998 4.33331 5.29095 4.33331 3.36844 4.85178C2.30781 5.13715 1.47247 5.97786 1.18895 7.04539C0.673828 8.98036 0.673828 13.0175 0.673828 13.0175C0.673828 13.0175 0.673828 17.0546 1.18895 18.9896C1.47247 20.0571 2.30781 20.8629 3.36844 21.1482C5.29095 21.6666 12.9998 21.6666 12.9998 21.6666C12.9998 21.6666 20.7086 21.6666 22.6311 21.1482C23.6917 20.8629 24.5271 20.0571 24.8106 18.9896C25.3257 17.0546 25.3257 13.0175 25.3257 13.0175C25.3257 13.0175 25.3257 8.98036 24.8106 7.04539ZM10.4785 16.6829V9.35208L16.9216 13.0176L10.4785 16.6829Z" fill="white"/>
</svg>
